<svg xmlns="http://www.w3.org/2000/svg" xmlns:xlink="http://www.w3.org/1999/xlink" width="32" height="32" id="user"><defs><linearGradient id="a"><stop offset="0" stop-color="#ffd800"></stop><stop offset="1" stop-color="#ff6100"></stop></linearGradient><linearGradient id="b" x1="906.952" x2="931.379" y1="515.915" y2="546.094" gradientTransform="translate(-925.812 491.682) scale(1.02524)" gradientUnits="userSpaceOnUse" xlink:href="#a"></linearGradient></defs><g transform="translate(0 -1020.362)"><rect width="32" height="32" y="1020.362" fill="url(#b)" rx="6.763" ry="6.763"></rect><path style="text-indent:0;text-align:start;line-height:normal;text-transform:none;block-progression:tb" fill="#fff" d="M22.5 9.125a.47.47 0 0 0-.344.469V11H20.75a.47.47 0 0 0-.063 0 .47.47 0 0 0 .063.938h1.406v1.406a.47.47 0 1 0 .938 0v-1.406H24.5a.47.47 0 1 0 0-.938h-1.406V9.594a.47.47 0 0 0-.469-.469.47.47 0 0 0-.125 0zM15.562 11c-1.812 0-3.28 1.5-3.28 3.313a3.28 3.28 0 0 0 3.28 3.28c1.813 0 3.313-1.468 3.313-3.28 0-1.813-1.5-3.313-3.313-3.313zm0 .938a2.384 2.384 0 0 1 2.376 2.374c0 1.305-1.071 2.344-2.375 2.344a2.33 2.33 0 0 1-2.344-2.343c0-1.305 1.039-2.376 2.344-2.376zm0 6.593c-3.6 0-6.562 2.492-6.562 5.657h.938c0-2.569 2.45-4.72 5.624-4.72 3.175 0 5.657 2.151 5.657 4.72h.937c0-3.165-2.992-5.657-6.593-5.657z" color="#000" font-family="sans-serif" font-weight="400" overflow="visible" transform="translate(0 1020.362)"></path></g></svg>