<svg xmlns="http://www.w3.org/2000/svg" width="48" height="48" id="webpage"><g transform="translate(0 -1004.362)"><circle cx="24" cy="1028.362" r="24" fill="#ffa40b" fill-rule="evenodd"></circle><path fill="#ff7712" d="M23.814 1052.352a24 24 0 0 0 .186.01 24 24 0 0 0 1.697-.06 24 24 0 0 0 2.383-.29 24 24 0 0 0 2.34-.525 24 24 0 0 0 2.277-.756 24 24 0 0 0 2.19-.98 24 24 0 0 0 2.08-1.194 24 24 0 0 0 1.951-1.394 24 24 0 0 0 1.803-1.584 24 24 0 0 0 1.634-1.756 24 24 0 0 0 1.454-1.91 24 24 0 0 0 1.254-2.045 24 24 0 0 0 1.042-2.16 24 24 0 0 0 .823-2.254 24 24 0 0 0 .593-2.324 24 24 0 0 0 .36-2.372 24 24 0 0 0 .119-2.396 24 24 0 0 0-.043-1.219l-14.355-14.355-.008-.008c-.037-.036-.08-.066-.121-.098-.032-.025-.06-.052-.094-.074a1.43 1.43 0 0 0-.213-.115l-.025-.014h-.002a1.462 1.462 0 0 0-.569-.113H16.43c-.793 0-1.43.616-1.43 1.38v29.231a1.352 1.352 0 0 0 .107.528c.02.046.048.088.073.132.02.036.037.074.06.108.013.018.03.035.043.053.038.049.074.098.117.142l.018.016 8.396 8.396z"></path><path fill="#fff" d="M16.43 1012.365c-.793 0-1.43.616-1.43 1.38v29.233c0 .765.637 1.381 1.43 1.381h16.14c.793 0 1.432-.616 1.432-1.38v-29.233c0-.765-.639-1.381-1.432-1.381H16.43zm1.066.996a.507.5 0 0 1 .506.5.507.5 0 0 1-.506.5.507.5 0 0 1-.508-.5.507.5 0 0 1 .508-.5zm4.506.014h4v.986h-4v-.986zm-5 1.986h15v24h-15v-24zm7.5 5.014a3.505 3.505 0 0 0-3.5 3.5c0 1.929 1.571 3.5 3.5 3.5s3.5-1.571 3.5-3.5c0-1.93-1.571-3.5-3.5-3.5Zm-3.5 7.988v1h7v-1h-7zm1 2v1h5v-1h-5zm2.52 9.998a1.52 1.5 0 0 1 1.52 1.5 1.52 1.5 0 0 1-1.52 1.5 1.52 1.5 0 0 1-1.52-1.5 1.52 1.5 0 0 1 1.52-1.5z"></path></g></svg>